<svg width="376" height="52" viewBox="0 0 376 52" fill="none" xmlns="http://www.w3.org/2000/svg">
<path d="M97.3201 0.779297H88.4201V13.1593H84.0801V21.0493H88.4201V51.4793H97.3201V21.0493H102.67V13.1593H97.3201V0.779297Z" fill="#0431FE"/>
<path d="M233.54 11.8891C229.58 11.8891 225.83 13.0891 222.68 15.1691V0.789062H213.79V30.5691C213.77 30.9591 213.75 31.3591 213.75 31.7591C213.75 42.3891 222.51 51.489 233.55 51.489C243.85 51.489 253.21 43.7991 253.21 31.6291C253.2 20.2391 244.04 11.8891 233.54 11.8891ZM233.54 43.3191C227.92 43.3191 222.64 38.7691 222.64 31.7491C222.64 23.9891 228.93 20.049 233.54 20.049C239.09 20.049 244.31 25.0691 244.31 31.8191C244.31 37.6991 240.03 43.3191 233.54 43.3191Z" fill="#0431FE"/>
<path d="M276.471 11.6797C265.031 11.6797 256.941 21.3097 256.941 31.8097C256.941 42.6397 265.501 51.4697 276.531 51.4697C285.221 51.4697 292.311 45.2497 294.451 38.5597H285.091C283.421 41.6397 280.481 43.3097 276.531 43.3097C270.181 43.3097 266.701 38.0897 266.301 35.6897H295.121C295.391 34.4897 295.651 32.9497 295.651 31.2097C295.671 21.8497 288.241 11.6797 276.471 11.6797ZM266.041 28.5397C267.711 21.6497 273.261 19.8497 276.541 19.8497C280.951 19.8497 285.571 22.5897 286.571 28.5397H266.041Z" fill="#0431FE"/>
<path d="M190.901 11.6797C179.461 11.6797 171.371 21.3097 171.371 31.8097C171.371 42.6397 179.931 51.4697 190.961 51.4697C199.651 51.4697 206.741 45.2497 208.881 38.5597H199.521C197.851 41.6397 194.911 43.3097 190.961 43.3097C184.611 43.3097 181.131 38.0897 180.731 35.6897H209.551C209.821 34.4897 210.081 32.9497 210.081 31.2097C210.091 21.8497 202.671 11.6797 190.901 11.6797ZM180.471 28.5397C182.141 21.6497 187.691 19.8497 190.971 19.8497C195.381 19.8497 200.001 22.5897 201.001 28.5397H180.471Z" fill="#0431FE"/>
<path d="M310.171 0.779297H301.281V51.4693H310.171V0.779297Z" fill="#0431FE"/>
<path d="M30.6306 15.0891C27.5006 13.0491 23.7706 11.8891 19.8605 11.8891C9.23055 11.8891 0.0605469 20.5191 0.0605469 31.7491C0.0605469 42.3791 8.82055 51.4791 19.8605 51.4791C30.1606 51.4791 39.5206 43.789 39.5206 31.619C39.5206 31.269 39.5106 30.9191 39.4906 30.5691H39.5206V0.789062H30.6306V15.0891ZM19.8705 43.3191C14.2505 43.3191 8.97055 38.7691 8.97055 31.7491C8.97055 23.9891 15.2605 20.049 19.8705 20.049C25.4205 20.049 30.6405 25.0691 30.6405 31.8191C30.6305 37.6991 26.3505 43.3191 19.8705 43.3191Z" fill="#0431FE"/>
<path d="M169.03 11.6484C157.82 11.7984 149.89 21.2085 149.77 31.5385H149.76V51.4684H158.65V28.4984C160.3 21.6984 165.73 19.8584 169.02 19.8084V11.6484H169.03Z" fill="#0431FE"/>
<path d="M134.97 51.4787H143.86V31.7487C143.86 19.5787 134.5 11.8887 124.2 11.8887C113.17 11.8887 104.4 20.9887 104.4 31.6187C104.4 42.8587 113.56 51.4787 124.2 51.4787C128.11 51.4787 131.83 50.3187 134.97 48.2787V51.4787ZM134.97 31.5486C134.97 38.2986 129.75 43.3187 124.2 43.3187C119.59 43.3187 113.3 39.3687 113.3 31.6187C113.3 24.5987 118.58 20.0486 124.2 20.0486C130.69 20.0386 134.97 25.6586 134.97 31.5486Z" fill="#0431FE"/>
<path d="M73.0798 51.4787H81.9698V31.7487C81.9698 19.5787 72.6098 11.8887 62.3098 11.8887C51.2798 11.8887 42.5098 20.9887 42.5098 31.6187C42.5098 42.8587 51.6698 51.4787 62.3098 51.4787C66.2198 51.4787 69.9398 50.3187 73.0798 48.2787V51.4787ZM73.0798 31.5486C73.0798 38.2986 67.8598 43.3187 62.3098 43.3187C57.6998 43.3187 51.4098 39.3687 51.4098 31.6187C51.4098 24.5987 56.6898 20.0486 62.3098 20.0486C68.7998 20.0386 73.0798 25.6586 73.0798 31.5486Z" fill="#0431FE"/>
<path d="M337.42 31.7092C337.42 25.7892 341.72 20.1492 348.24 20.1492C353.87 20.1492 359.16 24.6892 359.2 31.7092H368.14C368.1 21.0492 359.31 11.9492 348.24 11.9492C337.95 11.9492 328.59 19.5992 328.48 31.7092H337.42Z" fill="#0431FE"/>
<path d="M343.771 31.709C343.771 37.629 339.471 43.269 332.951 43.269C327.321 43.269 322.031 38.729 321.991 31.709H313.051C313.091 42.369 321.881 51.469 332.951 51.469C343.241 51.469 352.601 43.819 352.711 31.709H343.771Z" fill="#0431FE"/>
<path d="M372.01 0.779297C373.1 0.779297 374.01 1.16931 374.76 1.94931C375.51 2.72931 375.88 3.6593 375.88 4.7493C375.88 5.5393 375.67 6.26929 375.25 6.92929C374.83 7.58929 374.25 8.0793 373.53 8.4093C373.06 8.6193 372.56 8.7193 372.02 8.7193C370.93 8.7193 370.02 8.32929 369.27 7.54929C368.52 6.76929 368.15 5.8393 368.15 4.7493C368.15 3.9593 368.36 3.22931 368.78 2.56931C369.2 1.90931 369.78 1.41929 370.5 1.08929C370.96 0.889294 371.47 0.779297 372.01 0.779297ZM372.01 7.92929C372.89 7.92929 373.63 7.6193 374.23 6.9993C374.83 6.3793 375.13 5.62929 375.13 4.73929C375.13 3.85929 374.83 3.10931 374.23 2.47931C373.63 1.84931 372.89 1.53931 372.01 1.53931C371.13 1.53931 370.4 1.84931 369.8 2.47931C369.2 3.10931 368.9 3.85929 368.9 4.73929C368.9 5.61929 369.2 6.36929 369.8 6.98929C370.39 7.60929 371.13 7.92929 372.01 7.92929ZM372.97 6.61929L371.96 5.22931H371.34V6.3793C371.34 6.6693 371.2 6.8093 370.92 6.8093C370.63 6.8093 370.49 6.6693 370.49 6.3793V2.98929C370.49 2.70929 370.63 2.56931 370.92 2.56931H372.37C372.78 2.56931 373.12 2.69929 373.39 2.95929C373.66 3.21929 373.79 3.54931 373.79 3.94931C373.79 4.43931 373.51 4.82929 372.94 5.11929L373.65 6.0993C373.72 6.2093 373.75 6.30931 373.75 6.38931C373.75 6.67931 373.6 6.81931 373.31 6.81931C373.17 6.80931 373.06 6.73929 372.97 6.61929ZM372.36 3.42929H371.33V4.41931H372.36C372.73 4.41931 372.92 4.2593 372.93 3.9393C372.94 3.5993 372.75 3.42929 372.36 3.42929Z" fill="#0431FE"/>
</svg>
